<?xml version="1.0" encoding="UTF-8"?>
<svg xmlns="http://www.w3.org/2000/svg" baseProfile="tiny" version="1.2" viewBox="0 0 40 40">
  <!-- Generator: Adobe Illustrator 28.7.0, SVG Export Plug-In . SVG Version: 1.2.0 Build 4)  -->
  <g>
    <g id="Layer_1">
      <g>
        <path d="M27.7,6.7c.9.5,1.3,1.7.8,2.8-.5.9-1.7,1.3-2.8.8-.9-.5-1.3-1.7-.8-2.8.4-1.1,1.7-1.3,2.8-.8M30,2.7c-3.2-1.9-7.2-.8-9,2.5-1.8,3.3-.8,7.2,2.5,8.9s7.2.8,8.9-2.5c1.7-3.3.6-7.1-2.4-8.9h0Z" fill="#af64a7"/>
        <path d="M35.3,20.1c0,1-.9,2.1-2.1,2.1s-2.1-.9-2.1-2.1.9-2.1,2.1-2.1,2.1,1,2.1,2.1M39.9,20.1c0-3.6-2.9-6.7-6.7-6.7s-6.6,2.9-6.6,6.7,2.9,6.7,6.6,6.7,6.7-3.2,6.7-6.7h0Z" fill="#7a6baf"/>
        <path d="M27.7,33.3c-.9.5-2.2.3-2.8-.8-.5-.9-.3-2.2.8-2.8.9-.5,2.2-.3,2.8.8.4,1.1.1,2.3-.8,2.8M30,37.3c3.2-1.9,4.2-5.9,2.5-8.9-1.9-3.2-5.9-4.2-8.9-2.5-3.2,1.7-4.2,5.9-2.5,8.9,1.6,3.1,5.6,4.4,8.9,2.5h0Z" fill="#0c8ca5"/>
        <path d="M12.1,33.3c-.9-.5-1.3-1.7-.8-2.8.5-.9,1.7-1.3,2.8-.8.9.5,1.3,1.7.8,2.8-.5,1.1-1.8,1.3-2.8.8M9.9,37.3c3.2,1.9,7.2.8,8.9-2.5,1.9-3.2.8-7.1-2.4-8.9-3.2-1.9-7.2-.8-8.9,2.5s-.7,7.1,2.4,8.9h0Z" fill="#7da969"/>
        <path d="M4.5,20.1c0-1,.9-2.1,2.1-2.1s2.1.9,2.1,2.1-.9,2.1-2.1,2.1-2.1-1.2-2.1-2.1M-.1,20.1c0,3.6,2.8,6.7,6.6,6.7s6.7-2.9,6.7-6.7-2.9-6.7-6.7-6.7S-.1,16.4-.1,20.1H-.1Z" fill="#ed8b79"/>
        <path d="M12.1,6.7c.9-.5,2.2-.3,2.9.8.5.9.1,2.2-.8,2.6-.9.5-2.2.3-2.6-.6-.7-1.1-.4-2.3.5-2.8M9.9,2.7c-3.2,1.9-4.2,5.9-2.5,8.9s5.9,4.2,8.9,2.5,4.2-5.9,2.5-8.9S13.1.8,9.9,2.7h0Z" fill="#ec6572"/>
        <path d="M19.8,18c1,0,2.1.9,2.1,2.1s-.9,2.1-2.1,2.1-2.1-.9-2.1-2.1c.2-1.1,1.1-2.1,2.1-2.1M19.8,13.3c-3.6,0-6.6,2.9-6.6,6.7s2.9,6.7,6.7,6.7,6.7-2.8,6.7-6.6-3.1-6.8-6.8-6.8h0Z" fill="#d5af33"/>
      </g>
    </g>
  </g>
</svg>