<?xml version="1.0" encoding="UTF-8"?>
<svg xmlns="http://www.w3.org/2000/svg" baseProfile="tiny" version="1.2" viewBox="0 0 138 40">
  <!-- Generator: Adobe Illustrator 28.7.0, SVG Export Plug-In . SVG Version: 1.2.0 Build 4)  -->
  <g>
    <g id="Layer_1">
      <g>
        <path d="M31.2,5.4c1,.5,1.4,1.9.9,3.1-.5,1-1.9,1.4-3.1.9-1-.5-1.4-1.9-.9-3.1s1.9-1.5,3.1-.9M33.7,1c-3.5-2.1-7.9-.9-9.9,2.7-2,3.6-.9,7.9,2.7,9.8s7.9.9,9.8-2.7.7-7.8-2.6-9.8h0Z" fill="#af64a7"/>
        <path d="M39.5,20.1c0,1.1-1,2.3-2.3,2.3s-2.3-1-2.3-2.3,1-2.3,2.3-2.3,2.3,1.1,2.3,2.3M44.6,20.1c0-3.9-3.2-7.3-7.3-7.3s-7.2,3.2-7.2,7.3,3.2,7.3,7.2,7.3,7.3-3.5,7.3-7.3h0Z" fill="#7a6baf"/>
        <path d="M31.2,34.6c-1,.5-2.4.3-3.1-.9-.5-1-.3-2.4.9-3.1,1-.5,2.4-.3,3.1.9.4,1.2,0,2.6-.9,3.1M33.7,39c3.5-2.1,4.6-6.5,2.7-9.8-2.1-3.5-6.5-4.6-9.8-2.7-3.5,1.9-4.6,6.5-2.7,9.8,1.8,3.4,6.2,4.8,9.8,2.7h0Z" fill="#0c8ca5"/>
        <path d="M14.1,34.6c-1-.5-1.4-1.9-.9-3.1.5-1,1.9-1.4,3.1-.9,1,.5,1.4,1.9.9,3.1-.6,1.2-2,1.5-3.1.9M11.7,39c3.5,2.1,7.9.9,9.8-2.7,2.1-3.5.9-7.8-2.6-9.8-3.5-2.1-7.9-.9-9.8,2.7-1.9,3.6-.8,7.8,2.6,9.8h0Z" fill="#7da969"/>
        <path d="M5.7,20.1c0-1.1,1-2.3,2.3-2.3s2.3,1,2.3,2.3-1,2.3-2.3,2.3-2.3-1.3-2.3-2.3M.7,20.1c0,3.9,3.1,7.3,7.2,7.3s7.4-3.2,7.4-7.3-3.2-7.4-7.3-7.4S.7,16.1.7,20.1h0Z" fill="#ed8b79"/>
        <path d="M14.1,5.4c1-.5,2.4-.3,3.1.9.5,1,.1,2.4-.9,2.9s-2.4.3-2.9-.7c-.7-1.2-.3-2.6.7-3.1M11.7,1c-3.5,2.1-4.6,6.5-2.7,9.8,1.9,3.3,6.5,4.6,9.8,2.7s4.6-6.5,2.7-9.8S15.2-1.1,11.7,1h0Z" fill="#ec6572"/>
        <path d="M22.5,17.8c1.1,0,2.3,1,2.3,2.3s-1,2.3-2.3,2.3-2.3-1-2.3-2.3c.2-1.2,1.2-2.3,2.3-2.3M22.5,12.7c-3.9,0-7.2,3.2-7.2,7.3s3.2,7.3,7.3,7.3,7.4-3.1,7.4-7.2-3.4-7.4-7.5-7.4h0Z" fill="#d5af33"/>
      </g>
      <g>
        <path d="M70.7,36.4c-2.2,0-4.4-.4-6.3-1.3-2-.8-3.7-2-5.1-3.5-1.5-1.5-2.6-3.2-3.4-5.2-.8-2-1.2-4.1-1.2-6.3s.4-4.3,1.2-6.3c.8-1.9,2-3.7,3.4-5.2,1.5-1.5,3.1-2.6,5.1-3.5,1.9-.8,4-1.2,6.3-1.2s4.3.4,6.3,1.2c1.9.8,3.6,2,5.1,3.5s2.6,3.2,3.4,5.2,1.2,4.1,1.2,6.3-.4,4.4-1.2,6.3c-.8,2-2,3.7-3.4,5.2-1.5,1.5-3.2,2.6-5.1,3.5-1.9.8-4,1.3-6.2,1.3h-.1ZM70.6,31.5c2.1,0,4-.5,5.6-1.4,1.6-1,2.9-2.3,3.8-4s1.4-3.7,1.4-5.9-.3-3.2-.8-4.5c-.5-1.4-1.3-2.5-2.2-3.6-1-1-2.1-1.8-3.4-2.3s-2.8-.8-4.3-.8-4,.5-5.6,1.4-2.9,2.3-3.8,3.9c-.9,1.7-1.4,3.6-1.4,5.9s.3,3.2.8,4.6,1.3,2.6,2.2,3.6,2.1,1.8,3.4,2.3c1.3.6,2.8.8,4.3.8Z" fill="#0d8ca5"/>
        <path d="M91.3,36V3.6h5v32.4h-5ZM106.1,36v-12.5c0-1.4-.5-2.6-1.4-3.6-.9-.9-2.1-1.4-3.5-1.4s-1.8.2-2.6.6c-.8.4-1.3,1-1.8,1.8-.4.8-.6,1.6-.6,2.6l-1.9-1.1c0-1.6.4-3.1,1.1-4.4s1.7-2.3,3-3,2.7-1.1,4.3-1.1,3.1.4,4.3,1.1c1.3.7,2.2,1.7,3,3,.7,1.3,1.1,2.8,1.1,4.4v13.5h-5Z" fill="#0d8ca5"/>
        <path d="M126,36.4c-2.1,0-4-.5-5.7-1.5s-3.1-2.4-4.1-4.1c-1-1.7-1.5-3.6-1.5-5.7s.5-4,1.5-5.7,2.4-3,4.1-4,3.6-1.5,5.7-1.5,4.1.5,5.8,1.5,3.1,2.3,4.1,4,1.5,3.6,1.5,5.7-.5,4-1.5,5.7-2.4,3.1-4.1,4.1c-1.7,1-3.6,1.5-5.8,1.5ZM126,31.7c1.2,0,2.3-.3,3.3-.8.9-.6,1.7-1.3,2.2-2.3s.8-2.1.8-3.4-.3-2.4-.8-3.3c-.5-1-1.3-1.7-2.2-2.3s-2-.8-3.2-.8-2.3.3-3.2.8c-.9.6-1.7,1.3-2.2,2.3s-.8,2.1-.8,3.3.3,2.4.8,3.4,1.3,1.8,2.2,2.3c.9.6,2,.8,3.2.8h-.1Z" fill="#0d8ca5"/>
      </g>
    </g>
  </g>
</svg>