<?xml version="1.0" encoding="utf-8"?>
<!-- Generator: Adobe Illustrator 25.2.0, SVG Export Plug-In . SVG Version: 6.00 Build 0)  -->
<svg version="1.1" id="Layer_1" xmlns="http://www.w3.org/2000/svg" xmlns:xlink="http://www.w3.org/1999/xlink" x="0px" y="0px"
	 viewBox="0 0 440 60" style="enable-background:new 0 0 440 60;" xml:space="preserve">
<style type="text/css">
	.st0{fill:#AF64A7;}
	.st1{fill:#7A6BAF;}
	.st2{fill:#0C8CA5;}
	.st3{fill:#7DA969;}
	.st4{fill:#ED8B79;}
	.st5{fill:#EC6572;}
	.st6{fill:#D5AF33;}
	.st7{fill:#D4AF34;}
	.st8{fill:#0D8CA5;}
</style>
<g>
	<path class="st0" d="M46.1,8.1c1.5,0.8,2.1,2.8,1.3,4.6c-0.8,1.5-2.8,2.1-4.6,1.3c-1.5-0.8-2.1-2.8-1.3-4.6S44.3,7.2,46.1,8.1
		 M49.8,1.6C44.5-1.5,38,0.3,35,5.6c-3,5.3-1.3,11.8,4,14.7s11.8,1.3,14.6-4S54.8,4.6,49.8,1.6L49.8,1.6z"/>
	<path class="st1" d="M58.6,30.1c0,1.7-1.5,3.4-3.4,3.4c-1.8,0-3.4-1.5-3.4-3.4c0-1.9,1.5-3.4,3.4-3.4C57,26.7,58.6,28.4,58.6,30.1
		 M66.2,30.1c0-5.9-4.8-10.9-10.9-10.9S44.5,24,44.5,30.1S49.3,41,55.3,41S66.2,35.8,66.2,30.1L66.2,30.1z"/>
	<path class="st2" d="M46.1,51.9c-1.5,0.8-3.6,0.4-4.6-1.3c-0.8-1.5-0.4-3.6,1.3-4.6c1.5-0.8,3.6-0.4,4.6,1.3
		C48.1,49,47.6,51.1,46.1,51.9 M49.8,58.4c5.3-3.1,6.9-9.7,4-14.7c-3.1-5.3-9.7-6.9-14.7-4c-5.2,2.9-6.9,9.7-4,14.7
		C37.9,59.5,44.5,61.5,49.8,58.4L49.8,58.4z"/>
	<path class="st3" d="M20.6,51.9c-1.5-0.8-2.1-2.8-1.3-4.6c0.8-1.5,2.8-2.1,4.6-1.3c1.5,0.8,2.1,2.8,1.3,4.6
		C24.3,52.3,22.2,52.8,20.6,51.9 M16.9,58.4c5.3,3.1,11.8,1.3,14.7-4c3.1-5.3,1.3-11.7-3.9-14.7c-5.3-3.1-11.8-1.3-14.7,4
		S11.8,55.4,16.9,58.4L16.9,58.4z"/>
	<path class="st4" d="M8,30.1c0-1.7,1.5-3.4,3.4-3.4s3.4,1.5,3.4,3.4c0,1.8-1.5,3.4-3.4,3.4S8,31.7,8,30.1 M0.5,30.1
		C0.5,36,5.2,41,11.3,41s11-4.8,11-10.9s-4.8-11-10.9-11S0.5,24.2,0.5,30.1L0.5,30.1z"/>
	<path class="st5" d="M20.6,8.1c1.5-0.8,3.6-0.4,4.6,1.3c0.8,1.5,0.2,3.6-1.3,4.4c-1.5,0.8-3.6,0.4-4.4-1.1C18.4,11,19,8.9,20.6,8.1
		 M16.9,1.6c-5.3,3.1-6.9,9.7-4,14.7s9.7,6.9,14.7,4s6.9-9.7,4-14.7S22.2-1.5,16.9,1.6L16.9,1.6z"/>
	<path class="st6" d="M33.1,26.7c1.7,0,3.4,1.5,3.4,3.4c0,1.8-1.5,3.4-3.4,3.4c-1.8,0-3.4-1.5-3.4-3.4
		C29.9,28.4,31.5,26.7,33.1,26.7 M33.1,19.1c-5.9,0-10.8,4.8-10.8,10.9s4.8,10.9,10.9,10.9s11-4.7,11-10.8S39.2,19.1,33.1,19.1
		L33.1,19.1z"/>
</g>
<g>
	<path class="st7" d="M338.3,49.7V10.9h5.2l2.3,7.6v31.3L338.3,49.7L338.3,49.7z M365.1,49.7l-23-29.8l1.5-9.1l23.1,29.8L365.1,49.7
		z M365.1,49.7l-2.1-7.3V10.9h7.5v38.8H365.1z"/>
	<path class="st8" d="M110.7,50.3c-2.8,0-5.5-0.5-7.9-1.5c-2.5-1-4.6-2.5-6.4-4.3c-1.8-1.8-3.3-4-4.3-6.4c-1-2.5-1.5-5.1-1.5-7.8
		s0.5-5.4,1.5-7.8c1-2.4,2.5-4.5,4.3-6.4s3.9-3.2,6.4-4.2s5.1-1.5,7.9-1.5c2.8,0,5.5,0.5,8,1.5s4.5,2.4,6.4,4.2s3.2,4,4.3,6.4
		c1,2.5,1.5,5.1,1.5,7.8s-0.5,5.5-1.5,7.8c-1,2.5-2.5,4.6-4.2,6.4c-1.8,1.8-3.9,3.3-6.4,4.3C116.1,49.8,113.5,50.3,110.7,50.3z
		 M110.6,43.4c2.5,0,4.6-0.5,6.5-1.7c1.8-1.1,3.3-2.6,4.4-4.6c1-2,1.5-4.3,1.5-6.9c0-1.9-0.3-3.7-0.9-5.2c-0.6-1.6-1.5-3-2.5-4.1
		c-1.1-1.2-2.4-2.1-3.9-2.7c-1.5-0.6-3.1-0.9-5.1-0.9c-2.5,0-4.6,0.5-6.4,1.6c-1.8,1.1-3.3,2.6-4.4,4.5c-1.1,1.9-1.6,4.2-1.6,6.8
		c0,1.9,0.3,3.8,0.9,5.4c0.6,1.6,1.5,3,2.5,4.1c1.1,1.2,2.4,2.1,3.9,2.7C107.1,43.1,108.8,43.4,110.6,43.4z"/>
	<path class="st8" d="M138.1,49.7V10.9h7.5v38.8H138.1z M142.9,33v-6.6h21.7V33H142.9z M162.5,49.7V10.9h7.5v38.8H162.5z"/>
	<path class="st8" d="M197.5,50.3c-2.8,0-5.5-0.5-7.9-1.5c-2.5-1-4.6-2.5-6.4-4.3c-1.8-1.8-3.3-4-4.3-6.4c-1-2.5-1.5-5.1-1.5-7.8
		s0.5-5.4,1.5-7.8c1-2.4,2.5-4.5,4.3-6.4c1.8-1.8,3.9-3.2,6.4-4.2s5.1-1.5,7.9-1.5c2.8,0,5.5,0.5,8,1.5c2.5,1,4.5,2.4,6.4,4.2
		c1.8,1.8,3.2,4,4.3,6.4c1,2.5,1.5,5.1,1.5,7.8s-0.5,5.5-1.5,7.8c-1,2.5-2.5,4.6-4.2,6.4c-1.8,1.8-3.9,3.3-6.4,4.3
		C203,49.8,200.3,50.3,197.5,50.3z M197.4,43.4c2.5,0,4.6-0.5,6.5-1.7c1.8-1.1,3.3-2.6,4.4-4.6c1-2,1.5-4.3,1.5-6.9
		c0-1.9-0.3-3.7-0.9-5.2c-0.6-1.6-1.5-3-2.5-4.1c-1.1-1.2-2.4-2.1-3.9-2.7c-1.5-0.6-3.1-0.9-5.1-0.9c-2.5,0-4.6,0.5-6.4,1.6
		s-3.3,2.6-4.4,4.5c-1.1,1.9-1.6,4.2-1.6,6.8c0,1.9,0.3,3.8,0.9,5.4c0.6,1.6,1.5,3,2.5,4.1c1.1,1.2,2.4,2.1,3.9,2.7
		C193.9,43.1,195.6,43.4,197.4,43.4z"/>
	<path class="st7" d="M237.5,50.3c-3.1,0-5.8-0.5-8-1.6c-2.2-1.1-4.2-2.7-6.1-4.8l5-5c1.2,1.5,2.5,2.7,4,3.5s3.3,1.2,5.5,1.2
		c1.9,0,3.5-0.4,4.6-1.2c1.2-0.8,1.7-1.8,1.7-3.2c0-1.2-0.3-2.1-1-2.8c-0.7-0.8-1.5-1.4-2.6-1.8c-1.1-0.5-2.3-0.9-3.6-1.4
		s-2.6-0.9-3.9-1.5c-1.3-0.5-2.5-1.2-3.6-2.1c-1.1-0.8-2-1.9-2.6-3.2s-1-2.9-1-5c0-2.4,0.5-4.4,1.7-6c1.2-1.7,2.7-2.9,4.7-3.8
		c2-0.9,4.2-1.3,6.8-1.3c2.7,0,5.1,0.5,7.2,1.5c2.1,1,3.9,2.3,5.2,3.8l-5,5c-1.2-1.2-2.3-2.1-3.5-2.8c-1.2-0.6-2.5-0.9-4.1-0.9
		c-1.8,0-3.1,0.3-4.1,1c-1,0.7-1.5,1.6-1.5,2.8c0,1.1,0.3,1.9,1,2.5c0.7,0.6,1.5,1.2,2.6,1.7c1.1,0.5,2.3,1,3.6,1.4
		c1.3,0.5,2.6,0.9,3.9,1.5c1.3,0.5,2.5,1.3,3.5,2.1c1.1,0.8,2,2,2.6,3.4c0.7,1.4,1,3.1,1,5.1c0,3.6-1.3,6.4-3.8,8.5
		C245.5,49.3,242.1,50.3,237.5,50.3z"/>
	<path class="st7" d="M277.6,50.3c-2.8,0-5.5-0.5-8-1.5c-2.5-1-4.5-2.5-6.4-4.3c-1.8-1.8-3.2-3.9-4.2-6.4s-1.5-5.1-1.5-7.8
		s0.5-5.5,1.5-7.8s2.4-4.5,4.2-6.4c1.8-1.8,3.9-3.2,6.4-4.2c2.5-1,5.1-1.5,7.9-1.5c3.1,0,5.9,0.5,8.3,1.5c2.3,1,4.4,2.4,6.2,4.1
		l-5.1,5.1c-1.1-1.2-2.4-2.1-3.9-2.8c-1.5-0.7-3.4-1-5.5-1c-1.8,0-3.4,0.3-4.9,0.9c-1.5,0.6-2.8,1.5-3.9,2.7
		c-1.1,1.2-1.9,2.5-2.5,4.1s-0.9,3.4-0.9,5.3s0.3,3.8,0.9,5.3c0.6,1.6,1.5,3,2.5,4.1c1.1,1.2,2.4,2,3.9,2.7c1.5,0.6,3.1,0.9,4.9,0.9
		c2.1,0,4.1-0.3,5.6-1c1.5-0.7,2.8-1.6,4-2.8l5.1,5.1c-1.8,1.8-4,3.1-6.4,4.1C283.5,49.8,280.7,50.3,277.6,50.3z"/>
	<path class="st7" d="M294.9,49.7l15.7-38.8h6.2l15.5,38.8h-8l-12.1-31.9h2.8l-12.2,31.9H294.9z M303.3,42.4v-6.3h20.9v6.3H303.3z"
		/>
</g>
</svg>
