<?xml version="1.0" encoding="utf-8"?>
<!-- Generator: Adobe Illustrator 28.2.0, SVG Export Plug-In . SVG Version: 6.00 Build 0)  -->
<svg version="1.1" id="Layer_1" xmlns="http://www.w3.org/2000/svg" xmlns:xlink="http://www.w3.org/1999/xlink" x="0px" y="0px"
	 viewBox="0 0 40 40" style="enable-background:new 0 0 40 40;" xml:space="preserve">
<style type="text/css">
	.st0{fill:#AF64A7;}
	.st1{fill:#7A6BAF;}
	.st2{fill:#0C8CA5;}
	.st3{fill:#7DA969;}
	.st4{fill:#ED8B79;}
	.st5{fill:#EC6572;}
	.st6{fill:#D5AF33;}
</style>
<g>
	<path class="st0" d="M27.7,6.7c0.9,0.5,1.3,1.7,0.8,2.8c-0.5,0.9-1.7,1.3-2.8,0.8c-0.9-0.5-1.3-1.7-0.8-2.8
		C25.3,6.4,26.6,6.2,27.7,6.7 M30,2.7c-3.2-1.9-7.2-0.8-9,2.5c-1.8,3.3-0.8,7.2,2.5,8.9s7.2,0.8,8.9-2.5C34.1,8.3,33,4.5,30,2.7
		L30,2.7z"/>
	<path class="st1" d="M35.3,20.1c0,1-0.9,2.1-2.1,2.1c-1.1,0-2.1-0.9-2.1-2.1S32,18,33.2,18C34.4,18,35.3,19,35.3,20.1 M39.9,20.1
		c0-3.6-2.9-6.7-6.7-6.7s-6.6,2.9-6.6,6.7s2.9,6.7,6.6,6.7S39.9,23.6,39.9,20.1L39.9,20.1z"/>
	<path class="st2" d="M27.7,33.3c-0.9,0.5-2.2,0.3-2.8-0.8c-0.5-0.9-0.3-2.2,0.8-2.8c0.9-0.5,2.2-0.3,2.8,0.8
		C28.9,31.6,28.6,32.8,27.7,33.3 M30,37.3c3.2-1.9,4.2-5.9,2.5-8.9c-1.9-3.2-5.9-4.2-8.9-2.5c-3.2,1.7-4.2,5.9-2.5,8.9
		C22.7,37.9,26.7,39.2,30,37.3L30,37.3z"/>
	<path class="st3" d="M12.1,33.3c-0.9-0.5-1.3-1.7-0.8-2.8c0.5-0.9,1.7-1.3,2.8-0.8c0.9,0.5,1.3,1.7,0.8,2.8
		C14.4,33.6,13.1,33.8,12.1,33.3 M9.9,37.3c3.2,1.9,7.2,0.8,8.9-2.5c1.9-3.2,0.8-7.1-2.4-8.9c-3.2-1.9-7.2-0.8-8.9,2.5
		S6.8,35.5,9.9,37.3L9.9,37.3z"/>
	<path class="st4" d="M4.5,20.1c0-1,0.9-2.1,2.1-2.1s2.1,0.9,2.1,2.1c0,1.1-0.9,2.1-2.1,2.1S4.5,21,4.5,20.1 M-0.1,20.1
		c0,3.6,2.8,6.7,6.6,6.7s6.7-2.9,6.7-6.7s-2.9-6.7-6.7-6.7S-0.1,16.4-0.1,20.1L-0.1,20.1z"/>
	<path class="st5" d="M12.1,6.7C13,6.2,14.3,6.4,15,7.5c0.5,0.9,0.1,2.2-0.8,2.6c-0.9,0.5-2.2,0.3-2.6-0.6
		C10.9,8.4,11.2,7.2,12.1,6.7 M9.9,2.7c-3.2,1.9-4.2,5.9-2.5,8.9s5.9,4.2,8.9,2.5s4.2-5.9,2.5-8.9S13.1,0.8,9.9,2.7L9.9,2.7z"/>
	<path class="st6" d="M19.8,18c1,0,2.1,0.9,2.1,2.1c0,1.1-0.9,2.1-2.1,2.1c-1.1,0-2.1-0.9-2.1-2.1C17.9,19,18.8,18,19.8,18
		 M19.8,13.3c-3.6,0-6.6,2.9-6.6,6.7s2.9,6.7,6.7,6.7s6.7-2.8,6.7-6.6S23.5,13.3,19.8,13.3L19.8,13.3z"/>
</g>
</svg>
