<?xml version="1.0" encoding="utf-8"?>
<!-- Generator: Adobe Illustrator 28.2.0, SVG Export Plug-In . SVG Version: 6.00 Build 0)  -->
<svg version="1.1" id="Layer_1" xmlns="http://www.w3.org/2000/svg" xmlns:xlink="http://www.w3.org/1999/xlink" x="0px" y="0px"
	 viewBox="0 0 138 40" style="enable-background:new 0 0 138 40;" xml:space="preserve">
<style type="text/css">
	.st0{fill:#AF64A7;}
	.st1{fill:#7A6BAF;}
	.st2{fill:#0C8CA5;}
	.st3{fill:#7DA969;}
	.st4{fill:#ED8B79;}
	.st5{fill:#EC6572;}
	.st6{fill:#D5AF33;}
	.st7{fill:#0D8CA5;}
</style>
<g>
	<path class="st0" d="M30.5,5.4c1,0.5,1.4,1.9,0.9,3.1c-0.5,1-1.9,1.4-3.1,0.9c-1-0.5-1.4-1.9-0.9-3.1S29.3,4.8,30.5,5.4 M33,1
		c-3.5-2.1-7.9-0.9-9.9,2.7s-0.9,7.9,2.7,9.8s7.9,0.9,9.8-2.7S36.3,3,33,1L33,1z"/>
	<path class="st1" d="M38.8,20.1c0,1.1-1,2.3-2.3,2.3c-1.2,0-2.3-1-2.3-2.3s1-2.3,2.3-2.3C37.8,17.8,38.8,18.9,38.8,20.1 M43.9,20.1
		c0-3.9-3.2-7.3-7.3-7.3s-7.2,3.2-7.2,7.3s3.2,7.3,7.2,7.3S43.9,23.9,43.9,20.1L43.9,20.1z"/>
	<path class="st2" d="M30.5,34.6c-1,0.5-2.4,0.3-3.1-0.9c-0.5-1-0.3-2.4,0.9-3.1c1-0.5,2.4-0.3,3.1,0.9
		C31.8,32.7,31.5,34.1,30.5,34.6 M33,39c3.5-2.1,4.6-6.5,2.7-9.8c-2.1-3.5-6.5-4.6-9.8-2.7c-3.5,1.9-4.6,6.5-2.7,9.8
		C25,39.7,29.4,41.1,33,39L33,39z"/>
	<path class="st3" d="M13.4,34.6c-1-0.5-1.4-1.9-0.9-3.1c0.5-1,1.9-1.4,3.1-0.9c1,0.5,1.4,1.9,0.9,3.1
		C15.9,34.9,14.5,35.2,13.4,34.6 M11,39c3.5,2.1,7.9,0.9,9.8-2.7c2.1-3.5,0.9-7.8-2.6-9.8c-3.5-2.1-7.9-0.9-9.8,2.7S7.6,37,11,39
		L11,39z"/>
	<path class="st4" d="M5,20.1c0-1.1,1-2.3,2.3-2.3s2.3,1,2.3,2.3c0,1.2-1,2.3-2.3,2.3S5,21.1,5,20.1 M0,20.1c0,3.9,3.1,7.3,7.2,7.3
		s7.4-3.2,7.4-7.3s-3.2-7.4-7.3-7.4S0,16.1,0,20.1L0,20.1z"/>
	<path class="st5" d="M13.4,5.4c1-0.5,2.4-0.3,3.1,0.9c0.5,1,0.1,2.4-0.9,2.9c-1,0.5-2.4,0.3-2.9-0.7C12,7.3,12.4,5.9,13.4,5.4
		 M11,1c-3.5,2.1-4.6,6.5-2.7,9.8s6.5,4.6,9.8,2.7s4.6-6.5,2.7-9.8S14.5-1.1,11,1L11,1z"/>
	<path class="st6" d="M21.8,17.8c1.1,0,2.3,1,2.3,2.3c0,1.2-1,2.3-2.3,2.3c-1.2,0-2.3-1-2.3-2.3C19.7,18.9,20.7,17.8,21.8,17.8
		 M21.8,12.7c-3.9,0-7.2,3.2-7.2,7.3s3.2,7.3,7.3,7.3s7.4-3.1,7.4-7.2S25.9,12.7,21.8,12.7L21.8,12.7z"/>
</g>
<path class="st7" d="M66.1,33.6c-1.9,0-3.7-0.3-5.3-1c-1.7-0.7-3.1-1.7-4.3-2.9c-1.2-1.2-2.2-2.7-2.9-4.3c-0.7-1.7-1-3.4-1-5.2
	s0.3-3.6,1-5.2c0.7-1.6,1.7-3,2.9-4.3s2.6-2.1,4.3-2.8c1.7-0.7,3.4-1,5.3-1c1.9,0,3.7,0.3,5.3,1c1.7,0.7,3,1.6,4.3,2.8
	s2.1,2.7,2.9,4.3c0.7,1.7,1,3.4,1,5.2s-0.3,3.7-1,5.2c-0.7,1.7-1.7,3.1-2.8,4.3c-1.2,1.2-2.6,2.2-4.3,2.9
	C69.8,33.2,68,33.6,66.1,33.6z M66.1,29c1.7,0,3.1-0.3,4.3-1.1c1.2-0.7,2.2-1.7,2.9-3.1c0.7-1.3,1-2.9,1-4.6c0-1.3-0.2-2.5-0.6-3.5
	c-0.4-1.1-1-2-1.7-2.7c-0.7-0.8-1.6-1.4-2.6-1.8c-1-0.4-2.1-0.6-3.4-0.6c-1.7,0-3.1,0.3-4.3,1.1c-1.2,0.7-2.2,1.7-2.9,3
	s-1.1,2.8-1.1,4.5c0,1.3,0.2,2.5,0.6,3.6c0.4,1.1,1,2,1.7,2.7c0.7,0.8,1.6,1.4,2.6,1.8C63.7,28.8,64.9,29,66.1,29z"/>
<path class="st7" d="M84.5,33.2V7.2h5v25.9C89.5,33.2,84.5,33.2,84.5,33.2z M87.7,22v-4.4h14.5V22H87.7z M100.8,33.2V7.2h5v25.9
	C105.8,33.2,100.8,33.2,100.8,33.2z"/>
<path class="st7" d="M124.2,33.6c-1.9,0-3.7-0.3-5.3-1c-1.7-0.7-3.1-1.7-4.3-2.9c-1.2-1.2-2.2-2.7-2.9-4.3c-0.7-1.7-1-3.4-1-5.2
	s0.3-3.6,1-5.2c0.7-1.6,1.7-3,2.9-4.3c1.2-1.2,2.6-2.1,4.3-2.8s3.4-1,5.3-1c1.9,0,3.7,0.3,5.3,1c1.7,0.7,3,1.6,4.3,2.8
	c1.2,1.2,2.1,2.7,2.9,4.3c0.7,1.7,1,3.4,1,5.2s-0.3,3.7-1,5.2c-0.7,1.7-1.7,3.1-2.8,4.3c-1.2,1.2-2.6,2.2-4.3,2.9
	C127.8,33.2,126,33.6,124.2,33.6z M124.1,29c1.7,0,3.1-0.3,4.3-1.1c1.2-0.7,2.2-1.7,2.9-3.1c0.7-1.3,1-2.9,1-4.6
	c0-1.3-0.2-2.5-0.6-3.5c-0.4-1.1-1-2-1.7-2.7c-0.7-0.8-1.6-1.4-2.6-1.8c-1-0.4-2.1-0.6-3.4-0.6c-1.7,0-3.1,0.3-4.3,1.1
	c-1.2,0.7-2.2,1.7-2.9,3s-1.1,2.8-1.1,4.5c0,1.3,0.2,2.5,0.6,3.6c0.4,1.1,1,2,1.7,2.7c0.7,0.8,1.6,1.4,2.6,1.8
	C121.8,28.8,122.9,29,124.1,29z"/>
</svg>
